<mxfile host="app.diagrams.net" modified="2023-09-18T09:17:13.798Z" agent="Mozilla/5.0 (Windows NT 10.0; Win64; x64; rv:109.0) Gecko/20100101 Firefox/117.0" etag="M_O7e3cnfgRoIDF0qvX7" version="21.7.5" type="device">
  <diagram name="Página-1" id="dKehqOb2y4fyhemJ3X-Z">
    <mxGraphModel dx="454" dy="269" grid="1" gridSize="10" guides="1" tooltips="1" connect="1" arrows="1" fold="1" page="1" pageScale="1" pageWidth="827" pageHeight="1169" math="0" shadow="0">
      <root>
        <mxCell id="0" />
        <mxCell id="1" parent="0" />
        <mxCell id="q4z3tuuA0Ni4nbGc4GVf-1" value="Inici" style="ellipse;whiteSpace=wrap;html=1;" vertex="1" parent="1">
          <mxGeometry x="310" y="10" width="70" height="50" as="geometry" />
        </mxCell>
        <mxCell id="q4z3tuuA0Ni4nbGc4GVf-2" value="Fi" style="ellipse;whiteSpace=wrap;html=1;" vertex="1" parent="1">
          <mxGeometry x="316" y="490" width="70" height="50" as="geometry" />
        </mxCell>
        <mxCell id="q4z3tuuA0Ni4nbGc4GVf-11" value="" style="edgeStyle=orthogonalEdgeStyle;rounded=0;orthogonalLoop=1;jettySize=auto;html=1;" edge="1" parent="1" source="q4z3tuuA0Ni4nbGc4GVf-5" target="q4z3tuuA0Ni4nbGc4GVf-7">
          <mxGeometry relative="1" as="geometry" />
        </mxCell>
        <mxCell id="q4z3tuuA0Ni4nbGc4GVf-5" value="Definir factor conversió: MILLES_A_METRES=1852" style="rounded=0;whiteSpace=wrap;html=1;" vertex="1" parent="1">
          <mxGeometry x="245" y="90" width="200" height="60" as="geometry" />
        </mxCell>
        <mxCell id="q4z3tuuA0Ni4nbGc4GVf-6" value="" style="endArrow=classic;html=1;rounded=0;entryX=0.5;entryY=0;entryDx=0;entryDy=0;exitX=0.5;exitY=1;exitDx=0;exitDy=0;" edge="1" parent="1" source="q4z3tuuA0Ni4nbGc4GVf-1" target="q4z3tuuA0Ni4nbGc4GVf-5">
          <mxGeometry width="50" height="50" relative="1" as="geometry">
            <mxPoint x="260" y="100" as="sourcePoint" />
            <mxPoint x="310" y="50" as="targetPoint" />
          </mxGeometry>
        </mxCell>
        <mxCell id="q4z3tuuA0Ni4nbGc4GVf-7" value="Preguntar i llegir de l&#39;usuari milles a convertir" style="rounded=0;whiteSpace=wrap;html=1;" vertex="1" parent="1">
          <mxGeometry x="245" y="190" width="200" height="60" as="geometry" />
        </mxCell>
        <mxCell id="q4z3tuuA0Ni4nbGc4GVf-12" value="" style="edgeStyle=orthogonalEdgeStyle;rounded=0;orthogonalLoop=1;jettySize=auto;html=1;" edge="1" parent="1" target="q4z3tuuA0Ni4nbGc4GVf-13">
          <mxGeometry relative="1" as="geometry">
            <mxPoint x="348" y="249" as="sourcePoint" />
          </mxGeometry>
        </mxCell>
        <mxCell id="q4z3tuuA0Ni4nbGc4GVf-13" value="Calcular el resultat de la conversió" style="rounded=0;whiteSpace=wrap;html=1;" vertex="1" parent="1">
          <mxGeometry x="248" y="289" width="200" height="60" as="geometry" />
        </mxCell>
        <mxCell id="q4z3tuuA0Ni4nbGc4GVf-15" value="" style="edgeStyle=orthogonalEdgeStyle;rounded=0;orthogonalLoop=1;jettySize=auto;html=1;" edge="1" parent="1" target="q4z3tuuA0Ni4nbGc4GVf-16">
          <mxGeometry relative="1" as="geometry">
            <mxPoint x="348" y="349" as="sourcePoint" />
          </mxGeometry>
        </mxCell>
        <mxCell id="q4z3tuuA0Ni4nbGc4GVf-16" value="Mostrar el resultat en metres" style="rounded=0;whiteSpace=wrap;html=1;" vertex="1" parent="1">
          <mxGeometry x="248" y="389" width="200" height="60" as="geometry" />
        </mxCell>
        <mxCell id="q4z3tuuA0Ni4nbGc4GVf-17" value="" style="edgeStyle=orthogonalEdgeStyle;rounded=0;orthogonalLoop=1;jettySize=auto;html=1;" edge="1" parent="1">
          <mxGeometry relative="1" as="geometry">
            <mxPoint x="349" y="449" as="sourcePoint" />
            <mxPoint x="349" y="489" as="targetPoint" />
          </mxGeometry>
        </mxCell>
      </root>
    </mxGraphModel>
  </diagram>
</mxfile>
